<svg width="40" height="50" viewBox="0 0 40 50" fill="none" xmlns="http://www.w3.org/2000/svg">
<path d="M0 20.0907C0 9.045 8.95431 0.0906982 20 0.0906982V0.0906982C31.0457 0.0906982 40 9.045 40 20.0907V29.0907C40 40.1364 31.0457 49.0907 20 49.0907V49.0907C8.95431 49.0907 0 40.1364 0 29.0907V20.0907Z" fill="#EEDCC4"/>
<path d="M20.5893 15.5014C20.2638 15.176 19.7362 15.176 19.4107 15.5014L14.1074 20.8047C13.782 21.1302 13.782 21.6578 14.1074 21.9833C14.4329 22.3087 14.9605 22.3087 15.286 21.9833L20 17.2692L24.714 21.9833C25.0395 22.3087 25.5671 22.3087 25.8926 21.9833C26.218 21.6578 26.218 21.1302 25.8926 20.8047L20.5893 15.5014ZM19.1667 16.0907L19.1667 26.924L20.8333 26.924L20.8333 16.0907L19.1667 16.0907Z" fill="#42241B"/>
</svg>
