<svg width="1280" height="89" viewBox="0 0 1280 89" fill="none" xmlns="http://www.w3.org/2000/svg">
<rect width="1280" height="88.4271" fill="#311B14"/>
<path d="M80.0103 39.9147H83.1042V52.6619H80.0103V39.9147Z" fill="#F8EBDA"/>
<path d="M79.6143 36.1004C79.6143 37.1434 80.473 38.0205 81.5464 38.0205C82.5959 38.0205 83.4546 37.1434 83.4546 36.1004C83.4546 35.0573 82.5959 34.1802 81.5464 34.1802C80.473 34.1802 79.6143 35.0573 79.6143 36.1004Z" fill="#F8EBDA"/>
<path d="M70.4236 52.9094C66.8346 52.9094 64.0872 50.1124 64.0872 46.3006C64.0872 42.4641 66.9584 39.6671 70.8692 39.6671C74.681 39.6671 77.5027 42.4146 77.5027 46.1026V52.6618H74.6315V50.5827C73.6661 52.1421 72.1068 52.9094 70.4236 52.9094ZM74.3592 46.3006C74.3592 44.2215 72.8741 42.6868 70.7949 42.6868C68.7405 42.6868 67.2306 44.2215 67.2306 46.3006C67.2306 48.3798 68.7405 49.9144 70.7949 49.9144C72.8741 49.9144 74.3592 48.3798 74.3592 46.3006Z" fill="#F8EBDA"/>
<path d="M49.2833 52.9094C45.6942 52.9094 42.9468 50.1124 42.9468 46.3006C42.9468 42.4641 45.818 39.6671 49.7288 39.6671C53.5406 39.6671 56.3623 42.4146 56.3623 46.1026V52.6618H53.4911V50.5827C52.5258 52.1421 50.9664 52.9094 49.2833 52.9094ZM53.2188 46.3006C53.2188 44.2215 51.7337 42.6868 49.6545 42.6868C47.6001 42.6868 46.0903 44.2215 46.0903 46.3006C46.0903 48.3798 47.6001 49.9144 49.6545 49.9144C51.7337 49.9144 53.2188 48.3798 53.2188 46.3006Z" fill="#F8EBDA"/>
<path d="M41.8292 48.7015C40.8886 51.647 38.3887 52.9094 35.4185 52.9094C31.5819 52.9094 28.8345 50.1619 28.8345 46.3006C28.8345 42.3898 31.6562 39.6671 35.567 39.6671C39.3293 39.6671 41.9035 42.2413 41.9035 45.7313C41.9035 46.2511 41.854 46.7957 41.7302 47.3649H32.5472C32.2007 47.3649 32.0275 47.5382 32.0275 47.8352C32.0275 49.0233 33.5373 50.2114 35.5422 50.2114C36.8541 50.2114 38.2402 49.8154 38.7847 48.7015H41.8292ZM35.6165 42.2908C33.6858 42.2908 32.275 43.3056 31.9532 44.9888H38.4877C38.7352 44.9888 38.8837 44.8403 38.8837 44.5927C38.8837 43.4542 37.5966 42.2908 35.6165 42.2908Z" fill="#F8EBDA"/>
<path d="M28.2631 52.8104C27.2068 52.8104 26.4186 52.8104 25.5275 52.8104C22.4831 52.8104 20.7504 51.1768 20.7504 47.8848V42.7364H17.6069V39.9147H19.8346C20.4286 39.9147 20.7504 39.5929 20.7504 38.9989V36.1003H23.8444V39.9147H28.2832V42.7364H23.8444V47.5878C23.8444 49.1224 24.4632 49.8155 26.1216 49.8155C26.7156 49.8155 27.2068 49.8155 28.2631 49.8155V52.8104Z" fill="#F8EBDA"/>
<path d="M3.20708 52.9094C-0.381937 52.9094 -3.12939 50.1124 -3.12939 46.3006C-3.12939 42.4641 -0.258179 39.6671 3.65262 39.6671C7.4644 39.6671 10.2861 42.4146 10.2861 46.1026V52.6618H7.4149V50.5827C6.44958 52.1421 4.89021 52.9094 3.20708 52.9094ZM7.14263 46.3006C7.14263 44.2215 5.65752 42.6868 3.57836 42.6868C1.52396 42.6868 0.0140921 44.2215 0.0140921 46.3006C0.0140921 48.3798 1.52396 49.9144 3.57836 49.9144C5.65752 49.9144 7.14263 48.3798 7.14263 46.3006Z" fill="#F8EBDA"/>
<path d="M296.229 39.9147H299.323V52.6619H296.229V39.9147Z" fill="#F8EBDA"/>
<path d="M295.833 36.1004C295.833 37.1434 296.691 38.0205 297.765 38.0205C298.814 38.0205 299.673 37.1434 299.673 36.1004C299.673 35.0573 298.814 34.1802 297.765 34.1802C296.691 34.1802 295.833 35.0573 295.833 36.1004Z" fill="#F8EBDA"/>
<path d="M286.642 52.9094C283.053 52.9094 280.306 50.1124 280.306 46.3006C280.306 42.4641 283.177 39.6671 287.088 39.6671C290.899 39.6671 293.721 42.4146 293.721 46.1026V52.6618H290.85V50.5827C289.885 52.1421 288.325 52.9094 286.642 52.9094ZM290.578 46.3006C290.578 44.2215 289.093 42.6868 287.013 42.6868C284.959 42.6868 283.449 44.2215 283.449 46.3006C283.449 48.3798 284.959 49.9144 287.013 49.9144C289.093 49.9144 290.578 48.3798 290.578 46.3006Z" fill="#F8EBDA"/>
<path d="M265.502 52.9094C261.912 52.9094 259.165 50.1124 259.165 46.3006C259.165 42.4641 262.036 39.6671 265.947 39.6671C269.759 39.6671 272.581 42.4146 272.581 46.1026V52.6618H269.709V50.5827C268.744 52.1421 267.185 52.9094 265.502 52.9094ZM269.437 46.3006C269.437 44.2215 267.952 42.6868 265.873 42.6868C263.818 42.6868 262.309 44.2215 262.309 46.3006C262.309 48.3798 263.818 49.9144 265.873 49.9144C267.952 49.9144 269.437 48.3798 269.437 46.3006Z" fill="#F8EBDA"/>
<path d="M258.048 48.7015C257.107 51.647 254.607 52.9094 251.637 52.9094C247.8 52.9094 245.053 50.1619 245.053 46.3006C245.053 42.3898 247.875 39.6671 251.785 39.6671C255.548 39.6671 258.122 42.2413 258.122 45.7313C258.122 46.2511 258.072 46.7957 257.949 47.3649H248.766C248.419 47.3649 248.246 47.5382 248.246 47.8352C248.246 49.0233 249.756 50.2114 251.761 50.2114C253.073 50.2114 254.459 49.8154 255.003 48.7015H258.048ZM251.835 42.2908C249.904 42.2908 248.493 43.3056 248.172 44.9888H254.706C254.954 44.9888 255.102 44.8403 255.102 44.5927C255.102 43.4542 253.815 42.2908 251.835 42.2908Z" fill="#F8EBDA"/>
<path d="M244.481 52.8104C243.425 52.8104 242.637 52.8104 241.746 52.8104C238.701 52.8104 236.969 51.1768 236.969 47.8848V42.7364H233.825V39.9147H236.053C236.647 39.9147 236.969 39.5929 236.969 38.9989V36.1003H240.063V39.9147H244.501V42.7364H240.063V47.5878C240.063 49.1224 240.681 49.8155 242.34 49.8155C242.934 49.8155 243.425 49.8155 244.481 49.8155V52.8104Z" fill="#F8EBDA"/>
<path d="M219.425 52.9094C215.836 52.9094 213.089 50.1124 213.089 46.3006C213.089 42.4641 215.96 39.6671 219.871 39.6671C223.683 39.6671 226.504 42.4146 226.504 46.1026V52.6618H223.633V50.5827C222.668 52.1421 221.108 52.9094 219.425 52.9094ZM223.361 46.3006C223.361 44.2215 221.876 42.6868 219.797 42.6868C217.742 42.6868 216.232 44.2215 216.232 46.3006C216.232 48.3798 217.742 49.9144 219.797 49.9144C221.876 49.9144 223.361 48.3798 223.361 46.3006Z" fill="#F8EBDA"/>
<path d="M205.803 39.6672C209.342 39.6672 212.09 42.4642 212.09 46.3007C212.09 50.1125 209.268 52.9095 205.382 52.9095C201.446 52.9095 198.674 50.1125 198.674 46.3255L198.674 36.1003H201.768V41.4988C202.634 40.3355 204.144 39.6672 205.803 39.6672ZM201.818 46.3007C201.818 48.3799 203.278 49.9145 205.407 49.9145C207.436 49.9145 208.946 48.3799 208.946 46.3007C208.946 44.2215 207.436 42.6869 205.407 42.6869C203.327 42.6869 201.818 44.2215 201.818 46.3007Z" fill="#F8EBDA"/>
<path d="M190.557 52.9094C186.696 52.9094 183.874 50.1867 183.874 46.3006C183.874 42.4146 186.696 39.6671 190.557 39.6671C194.443 39.6671 197.24 42.4146 197.24 46.3006C197.24 50.1867 194.443 52.9094 190.557 52.9094ZM190.557 49.9144C192.661 49.9144 194.097 48.3798 194.097 46.3006C194.097 44.1967 192.661 42.6868 190.557 42.6868C188.478 42.6868 187.018 44.1967 187.018 46.3006C187.018 48.3798 188.478 49.9144 190.557 49.9144Z" fill="#F8EBDA"/>
<path d="M176.613 39.6672C180.152 39.6672 182.9 42.4642 182.9 46.3007C182.9 50.1125 180.078 52.9095 176.192 52.9095C172.257 52.9095 169.484 50.1125 169.484 46.3255V36.1003H172.578V41.4988C173.445 40.3355 174.955 39.6672 176.613 39.6672ZM172.628 46.3007C172.628 48.3799 174.088 49.9145 176.217 49.9145C178.247 49.9145 179.756 48.3799 179.756 46.3007C179.756 44.2215 178.247 42.6869 176.217 42.6869C174.138 42.6869 172.628 44.2215 172.628 46.3007Z" fill="#F8EBDA"/>
<path d="M141.145 29.5985C146.495 29.5985 148.567 32.1275 148.567 36.6873C148.567 41.2279 146.495 43.7568 141.145 43.7568C135.775 43.7568 133.723 41.2279 133.723 36.6873C133.723 32.1275 135.775 29.5985 141.145 29.5985Z" fill="#FBEC93"/>
<path d="M118.195 28C119.366 28 120.312 28.3272 121.01 29.0706C121.391 29.4766 121.91 29.7648 122.466 29.7351C122.745 29.7202 123.034 29.7127 123.333 29.7127C128.848 29.7127 130.983 32.2824 130.983 36.9158C130.983 39.0254 130.739 40.3828 129.727 41.5874C128.243 43.6427 129.727 44.7845 132.239 44.7845C137.754 44.7845 139.889 47.3542 139.889 51.9875C139.889 56.6014 137.754 59.1712 132.239 59.1712C126.281 59.1712 124.365 55.5871 124.361 50.3793C124.359 48.5558 124.542 47.8569 124.817 45.9263C124.932 45.127 124.694 44.0994 123.333 44.0994C117.375 44.0994 115.459 40.5153 115.455 35.3075C115.451 30.9525 115.563 28 118.195 28Z" fill="#FBEC93"/>
<path d="M150.872 58.7548C151.427 58.7263 151.943 59.014 152.328 59.4143C153.003 60.1174 153.916 60.4271 155.041 60.4271C157.596 60.4271 157.704 57.5794 157.701 53.3787C157.697 48.3556 155.837 44.8986 150.054 44.8986C144.702 44.8986 142.629 47.3773 142.629 51.8275C142.629 56.2965 144.702 58.7752 150.054 58.7752C150.336 58.7752 150.609 58.7684 150.872 58.7548Z" fill="#FBEC93"/>
<path d="M512.447 39.9147H515.541V52.6619H512.447V39.9147Z" fill="#F8EBDA"/>
<path d="M512.051 36.1004C512.051 37.1434 512.909 38.0205 513.983 38.0205C515.032 38.0205 515.891 37.1434 515.891 36.1004C515.891 35.0573 515.032 34.1802 513.983 34.1802C512.909 34.1802 512.051 35.0573 512.051 36.1004Z" fill="#F8EBDA"/>
<path d="M502.86 52.9094C499.271 52.9094 496.524 50.1124 496.524 46.3006C496.524 42.4641 499.395 39.6671 503.306 39.6671C507.117 39.6671 509.939 42.4146 509.939 46.1026V52.6618H507.068V50.5827C506.103 52.1421 504.543 52.9094 502.86 52.9094ZM506.796 46.3006C506.796 44.2215 505.311 42.6868 503.231 42.6868C501.177 42.6868 499.667 44.2215 499.667 46.3006C499.667 48.3798 501.177 49.9144 503.231 49.9144C505.311 49.9144 506.796 48.3798 506.796 46.3006Z" fill="#F8EBDA"/>
<path d="M481.72 52.9094C478.131 52.9094 475.383 50.1124 475.383 46.3006C475.383 42.4641 478.254 39.6671 482.165 39.6671C485.977 39.6671 488.799 42.4146 488.799 46.1026V52.6618H485.927V50.5827C484.962 52.1421 483.403 52.9094 481.72 52.9094ZM485.655 46.3006C485.655 44.2215 484.17 42.6868 482.091 42.6868C480.036 42.6868 478.527 44.2215 478.527 46.3006C478.527 48.3798 480.036 49.9144 482.091 49.9144C484.17 49.9144 485.655 48.3798 485.655 46.3006Z" fill="#F8EBDA"/>
<path d="M474.266 48.7015C473.325 51.647 470.825 52.9094 467.855 52.9094C464.018 52.9094 461.271 50.1619 461.271 46.3006C461.271 42.3898 464.093 39.6671 468.004 39.6671C471.766 39.6671 474.34 42.2413 474.34 45.7313C474.34 46.2511 474.29 46.7957 474.167 47.3649H464.984C464.637 47.3649 464.464 47.5382 464.464 47.8352C464.464 49.0233 465.974 50.2114 467.979 50.2114C469.291 50.2114 470.677 49.8154 471.221 48.7015H474.266ZM468.053 42.2908C466.122 42.2908 464.712 43.3056 464.39 44.9888H470.924C471.172 44.9888 471.32 44.8403 471.32 44.5927C471.32 43.4542 470.033 42.2908 468.053 42.2908Z" fill="#F8EBDA"/>
<path d="M460.699 52.8104C459.643 52.8104 458.855 52.8104 457.964 52.8104C454.919 52.8104 453.187 51.1768 453.187 47.8848V42.7364H450.043V39.9147H452.271C452.865 39.9147 453.187 39.5929 453.187 38.9989V36.1003H456.281V39.9147H460.719V42.7364H456.281V47.5878C456.281 49.1224 456.899 49.8155 458.558 49.8155C459.152 49.8155 459.643 49.8155 460.699 49.8155V52.8104Z" fill="#F8EBDA"/>
<path d="M435.643 52.9094C432.054 52.9094 429.307 50.1124 429.307 46.3006C429.307 42.4641 432.178 39.6671 436.089 39.6671C439.901 39.6671 442.722 42.4146 442.722 46.1026V52.6618H439.851V50.5827C438.886 52.1421 437.326 52.9094 435.643 52.9094ZM439.579 46.3006C439.579 44.2215 438.094 42.6868 436.015 42.6868C433.96 42.6868 432.45 44.2215 432.45 46.3006C432.45 48.3798 433.96 49.9144 436.015 49.9144C438.094 49.9144 439.579 48.3798 439.579 46.3006Z" fill="#F8EBDA"/>
<path d="M422.021 39.6672C425.56 39.6672 428.308 42.4642 428.308 46.3007C428.308 50.1125 425.486 52.9095 421.6 52.9095C417.664 52.9095 414.892 50.1125 414.892 46.3255L414.892 36.1003H417.986V41.4988C418.852 40.3355 420.362 39.6672 422.021 39.6672ZM418.036 46.3007C418.036 48.3799 419.496 49.9145 421.625 49.9145C423.654 49.9145 425.164 48.3799 425.164 46.3007C425.164 44.2215 423.654 42.6869 421.625 42.6869C419.545 42.6869 418.036 44.2215 418.036 46.3007Z" fill="#F8EBDA"/>
<path d="M406.775 52.9094C402.914 52.9094 400.092 50.1867 400.092 46.3006C400.092 42.4146 402.914 39.6671 406.775 39.6671C410.661 39.6671 413.458 42.4146 413.458 46.3006C413.458 50.1867 410.661 52.9094 406.775 52.9094ZM406.775 49.9144C408.879 49.9144 410.315 48.3798 410.315 46.3006C410.315 44.1967 408.879 42.6868 406.775 42.6868C404.696 42.6868 403.236 44.1967 403.236 46.3006C403.236 48.3798 404.696 49.9144 406.775 49.9144Z" fill="#F8EBDA"/>
<path d="M392.831 39.6672C396.37 39.6672 399.118 42.4642 399.118 46.3007C399.118 50.1125 396.296 52.9095 392.41 52.9095C388.475 52.9095 385.702 50.1125 385.702 46.3255V36.1003H388.796V41.4988C389.663 40.3355 391.173 39.6672 392.831 39.6672ZM388.846 46.3007C388.846 48.3799 390.306 49.9145 392.435 49.9145C394.465 49.9145 395.974 48.3799 395.974 46.3007C395.974 44.2215 394.465 42.6869 392.435 42.6869C390.356 42.6869 388.846 44.2215 388.846 46.3007Z" fill="#F8EBDA"/>
<path d="M357.363 29.5985C362.713 29.5985 364.785 32.1275 364.785 36.6873C364.785 41.2279 362.713 43.7568 357.363 43.7568C351.993 43.7568 349.942 41.2279 349.942 36.6873C349.942 32.1275 351.993 29.5985 357.363 29.5985Z" fill="#B0A8FD"/>
<path d="M334.413 28C335.584 28 336.531 28.3272 337.228 29.0706C337.61 29.4766 338.128 29.7648 338.684 29.7351C338.963 29.7202 339.252 29.7127 339.551 29.7127C345.066 29.7127 347.201 32.2824 347.201 36.9158C347.201 39.0254 346.957 40.3828 345.945 41.5874C344.461 43.6427 345.945 44.7845 348.457 44.7845C353.972 44.7845 356.107 47.3542 356.107 51.9875C356.107 56.6014 353.972 59.1712 348.457 59.1712C342.499 59.1712 340.583 55.5871 340.579 50.3793C340.578 48.5558 340.76 47.8569 341.036 45.9263C341.15 45.127 340.912 44.0994 339.551 44.0994C333.593 44.0994 331.677 40.5153 331.673 35.3075C331.67 30.9525 331.782 28 334.413 28Z" fill="#B0A8FD"/>
<path d="M367.091 58.7548C367.645 58.7263 368.162 59.014 368.546 59.4143C369.222 60.1174 370.134 60.4271 371.26 60.4271C373.814 60.4271 373.923 57.5794 373.919 53.3787C373.916 48.3556 372.056 44.8986 366.273 44.8986C360.92 44.8986 358.848 47.3773 358.848 51.8275C358.848 56.2965 360.92 58.7752 366.273 58.7752C366.554 58.7752 366.827 58.7684 367.091 58.7548Z" fill="#B0A8FD"/>
<path d="M728.665 39.9147H731.759V52.6619H728.665V39.9147Z" fill="#F8EBDA"/>
<path d="M728.269 36.1004C728.269 37.1434 729.128 38.0205 730.201 38.0205C731.25 38.0205 732.109 37.1434 732.109 36.1004C732.109 35.0573 731.25 34.1802 730.201 34.1802C729.128 34.1802 728.269 35.0573 728.269 36.1004Z" fill="#F8EBDA"/>
<path d="M719.078 52.9094C715.489 52.9094 712.742 50.1124 712.742 46.3006C712.742 42.4641 715.613 39.6671 719.524 39.6671C723.335 39.6671 726.157 42.4146 726.157 46.1026V52.6618H723.286V50.5827C722.321 52.1421 720.761 52.9094 719.078 52.9094ZM723.014 46.3006C723.014 44.2215 721.529 42.6868 719.449 42.6868C717.395 42.6868 715.885 44.2215 715.885 46.3006C715.885 48.3798 717.395 49.9144 719.449 49.9144C721.529 49.9144 723.014 48.3798 723.014 46.3006Z" fill="#F8EBDA"/>
<path d="M697.938 52.9094C694.349 52.9094 691.601 50.1124 691.601 46.3006C691.601 42.4641 694.473 39.6671 698.383 39.6671C702.195 39.6671 705.017 42.4146 705.017 46.1026V52.6618H702.146V50.5827C701.18 52.1421 699.621 52.9094 697.938 52.9094ZM701.873 46.3006C701.873 44.2215 700.388 42.6868 698.309 42.6868C696.255 42.6868 694.745 44.2215 694.745 46.3006C694.745 48.3798 696.255 49.9144 698.309 49.9144C700.388 49.9144 701.873 48.3798 701.873 46.3006Z" fill="#F8EBDA"/>
<path d="M690.484 48.7015C689.543 51.647 687.043 52.9094 684.073 52.9094C680.236 52.9094 677.489 50.1619 677.489 46.3006C677.489 42.3898 680.311 39.6671 684.222 39.6671C687.984 39.6671 690.558 42.2413 690.558 45.7313C690.558 46.2511 690.508 46.7957 690.385 47.3649H681.202C680.855 47.3649 680.682 47.5382 680.682 47.8352C680.682 49.0233 682.192 50.2114 684.197 50.2114C685.509 50.2114 686.895 49.8154 687.439 48.7015H690.484ZM684.271 42.2908C682.34 42.2908 680.93 43.3056 680.608 44.9888H687.142C687.39 44.9888 687.538 44.8403 687.538 44.5927C687.538 43.4542 686.251 42.2908 684.271 42.2908Z" fill="#F8EBDA"/>
<path d="M676.918 52.8104C675.861 52.8104 675.073 52.8104 674.182 52.8104C671.138 52.8104 669.405 51.1768 669.405 47.8848V42.7364H666.261V39.9147H668.489C669.083 39.9147 669.405 39.5929 669.405 38.9989V36.1003H672.499V39.9147H676.938V42.7364H672.499V47.5878C672.499 49.1224 673.118 49.8155 674.776 49.8155C675.37 49.8155 675.861 49.8155 676.918 49.8155V52.8104Z" fill="#F8EBDA"/>
<path d="M651.862 52.9094C648.273 52.9094 645.525 50.1124 645.525 46.3006C645.525 42.4641 648.396 39.6671 652.307 39.6671C656.119 39.6671 658.941 42.4146 658.941 46.1026V52.6618H656.069V50.5827C655.104 52.1421 653.545 52.9094 651.862 52.9094ZM655.797 46.3006C655.797 44.2215 654.312 42.6868 652.233 42.6868C650.178 42.6868 648.669 44.2215 648.669 46.3006C648.669 48.3798 650.178 49.9144 652.233 49.9144C654.312 49.9144 655.797 48.3798 655.797 46.3006Z" fill="#F8EBDA"/>
<path d="M638.239 39.6672C641.778 39.6672 644.526 42.4642 644.526 46.3007C644.526 50.1125 641.704 52.9095 637.818 52.9095C633.883 52.9095 631.11 50.1125 631.11 46.3255L631.11 36.1003H634.204V41.4988C635.071 40.3355 636.581 39.6672 638.239 39.6672ZM634.254 46.3007C634.254 48.3799 635.714 49.9145 637.843 49.9145C639.873 49.9145 641.382 48.3799 641.382 46.3007C641.382 44.2215 639.873 42.6869 637.843 42.6869C635.764 42.6869 634.254 44.2215 634.254 46.3007Z" fill="#F8EBDA"/>
<path d="M622.994 52.9094C619.132 52.9094 616.311 50.1867 616.311 46.3006C616.311 42.4146 619.132 39.6671 622.994 39.6671C626.88 39.6671 629.677 42.4146 629.677 46.3006C629.677 50.1867 626.88 52.9094 622.994 52.9094ZM622.994 49.9144C625.097 49.9144 626.533 48.3798 626.533 46.3006C626.533 44.1967 625.097 42.6868 622.994 42.6868C620.914 42.6868 619.454 44.1967 619.454 46.3006C619.454 48.3798 620.914 49.9144 622.994 49.9144Z" fill="#F8EBDA"/>
<path d="M609.049 39.6672C612.589 39.6672 615.336 42.4642 615.336 46.3007C615.336 50.1125 612.514 52.9095 608.628 52.9095C604.693 52.9095 601.921 50.1125 601.921 46.3255V36.1003H605.015V41.4988C605.881 40.3355 607.391 39.6672 609.049 39.6672ZM605.064 46.3007C605.064 48.3799 606.525 49.9145 608.653 49.9145C610.683 49.9145 612.193 48.3799 612.193 46.3007C612.193 44.2215 610.683 42.6869 608.653 42.6869C606.574 42.6869 605.064 44.2215 605.064 46.3007Z" fill="#F8EBDA"/>
<path d="M573.581 29.5985C578.931 29.5985 581.003 32.1275 581.003 36.6873C581.003 41.2279 578.931 43.7568 573.581 43.7568C568.211 43.7568 566.16 41.2279 566.16 36.6873C566.16 32.1275 568.211 29.5985 573.581 29.5985Z" fill="#F28B6F"/>
<path d="M550.631 28C551.802 28 552.749 28.3272 553.446 29.0706C553.828 29.4766 554.346 29.7648 554.902 29.7351C555.181 29.7202 555.47 29.7127 555.769 29.7127C561.284 29.7127 563.419 32.2824 563.419 36.9158C563.419 39.0254 563.175 40.3828 562.163 41.5874C560.679 43.6427 562.163 44.7845 564.675 44.7845C570.19 44.7845 572.325 47.3542 572.325 51.9875C572.325 56.6014 570.19 59.1712 564.675 59.1712C558.717 59.1712 556.801 55.5871 556.797 50.3793C556.796 48.5558 556.978 47.8569 557.254 45.9263C557.368 45.127 557.13 44.0994 555.769 44.0994C549.811 44.0994 547.895 40.5153 547.891 35.3075C547.888 30.9525 548 28 550.631 28Z" fill="#F28B6F"/>
<path d="M583.309 58.7548C583.863 58.7263 584.38 59.014 584.764 59.4143C585.44 60.1174 586.352 60.4271 587.478 60.4271C590.032 60.4271 590.141 57.5794 590.137 53.3787C590.134 48.3556 588.274 44.8986 582.491 44.8986C577.138 44.8986 575.066 47.3773 575.066 51.8275C575.066 56.2965 577.138 58.7752 582.491 58.7752C582.772 58.7752 583.045 58.7684 583.309 58.7548Z" fill="#F28B6F"/>
<path d="M944.883 39.9147H947.977V52.6619H944.883V39.9147Z" fill="#F8EBDA"/>
<path d="M944.487 36.1004C944.487 37.1434 945.346 38.0205 946.419 38.0205C947.469 38.0205 948.328 37.1434 948.328 36.1004C948.328 35.0573 947.469 34.1802 946.419 34.1802C945.346 34.1802 944.487 35.0573 944.487 36.1004Z" fill="#F8EBDA"/>
<path d="M935.296 52.9094C931.707 52.9094 928.96 50.1124 928.96 46.3006C928.96 42.4641 931.831 39.6671 935.742 39.6671C939.554 39.6671 942.375 42.4146 942.375 46.1026V52.6618H939.504V50.5827C938.539 52.1421 936.98 52.9094 935.296 52.9094ZM939.232 46.3006C939.232 44.2215 937.747 42.6868 935.668 42.6868C933.613 42.6868 932.103 44.2215 932.103 46.3006C932.103 48.3798 933.613 49.9144 935.668 49.9144C937.747 49.9144 939.232 48.3798 939.232 46.3006Z" fill="#F8EBDA"/>
<path d="M914.156 52.9094C910.567 52.9094 907.82 50.1124 907.82 46.3006C907.82 42.4641 910.691 39.6671 914.602 39.6671C918.414 39.6671 921.235 42.4146 921.235 46.1026V52.6618H918.364V50.5827C917.399 52.1421 915.839 52.9094 914.156 52.9094ZM918.092 46.3006C918.092 44.2215 916.607 42.6868 914.528 42.6868C912.473 42.6868 910.963 44.2215 910.963 46.3006C910.963 48.3798 912.473 49.9144 914.528 49.9144C916.607 49.9144 918.092 48.3798 918.092 46.3006Z" fill="#F8EBDA"/>
<path d="M906.702 48.7015C905.762 51.647 903.262 52.9094 900.292 52.9094C896.455 52.9094 893.708 50.1619 893.708 46.3006C893.708 42.3898 896.529 39.6671 900.44 39.6671C904.202 39.6671 906.777 42.2413 906.777 45.7313C906.777 46.2511 906.727 46.7957 906.603 47.3649H897.42C897.074 47.3649 896.901 47.5382 896.901 47.8352C896.901 49.0233 898.41 50.2114 900.415 50.2114C901.727 50.2114 903.113 49.8154 903.658 48.7015H906.702ZM900.49 42.2908C898.559 42.2908 897.148 43.3056 896.826 44.9888H903.361C903.608 44.9888 903.757 44.8403 903.757 44.5927C903.757 43.4542 902.47 42.2908 900.49 42.2908Z" fill="#F8EBDA"/>
<path d="M893.136 52.8104C892.08 52.8104 891.292 52.8104 890.401 52.8104C887.356 52.8104 885.623 51.1768 885.623 47.8848V42.7364H882.48V39.9147H884.708C885.302 39.9147 885.623 39.5929 885.623 38.9989V36.1003H888.717V39.9147H893.156V42.7364H888.717V47.5878C888.717 49.1224 889.336 49.8155 890.995 49.8155C891.589 49.8155 892.08 49.8155 893.136 49.8155V52.8104Z" fill="#F8EBDA"/>
<path d="M868.08 52.9094C864.491 52.9094 861.743 50.1124 861.743 46.3006C861.743 42.4641 864.615 39.6671 868.525 39.6671C872.337 39.6671 875.159 42.4146 875.159 46.1026V52.6618H872.288V50.5827C871.322 52.1421 869.763 52.9094 868.08 52.9094ZM872.015 46.3006C872.015 44.2215 870.53 42.6868 868.451 42.6868C866.397 42.6868 864.887 44.2215 864.887 46.3006C864.887 48.3798 866.397 49.9144 868.451 49.9144C870.53 49.9144 872.015 48.3798 872.015 46.3006Z" fill="#F8EBDA"/>
<path d="M854.457 39.6672C857.997 39.6672 860.744 42.4642 860.744 46.3007C860.744 50.1125 857.922 52.9095 854.036 52.9095C850.101 52.9095 847.329 50.1125 847.329 46.3255L847.329 36.1003H850.423V41.4988C851.289 40.3355 852.799 39.6672 854.457 39.6672ZM850.472 46.3007C850.472 48.3799 851.932 49.9145 854.061 49.9145C856.091 49.9145 857.601 48.3799 857.601 46.3007C857.601 44.2215 856.091 42.6869 854.061 42.6869C851.982 42.6869 850.472 44.2215 850.472 46.3007Z" fill="#F8EBDA"/>
<path d="M839.212 52.9094C835.351 52.9094 832.529 50.1867 832.529 46.3006C832.529 42.4146 835.351 39.6671 839.212 39.6671C843.098 39.6671 845.895 42.4146 845.895 46.3006C845.895 50.1867 843.098 52.9094 839.212 52.9094ZM839.212 49.9144C841.316 49.9144 842.751 48.3798 842.751 46.3006C842.751 44.1967 841.316 42.6868 839.212 42.6868C837.133 42.6868 835.672 44.1967 835.672 46.3006C835.672 48.3798 837.133 49.9144 839.212 49.9144Z" fill="#F8EBDA"/>
<path d="M825.267 39.6672C828.807 39.6672 831.554 42.4642 831.554 46.3007C831.554 50.1125 828.733 52.9095 824.847 52.9095C820.911 52.9095 818.139 50.1125 818.139 46.3255V36.1003H821.233V41.4988C822.099 40.3355 823.609 39.6672 825.267 39.6672ZM821.282 46.3007C821.282 48.3799 822.743 49.9145 824.871 49.9145C826.901 49.9145 828.411 48.3799 828.411 46.3007C828.411 44.2215 826.901 42.6869 824.871 42.6869C822.792 42.6869 821.282 44.2215 821.282 46.3007Z" fill="#F8EBDA"/>
<path d="M789.8 29.5985C795.15 29.5985 797.221 32.1275 797.221 36.6873C797.221 41.2279 795.15 43.7568 789.8 43.7568C784.429 43.7568 782.378 41.2279 782.378 36.6873C782.378 32.1275 784.429 29.5985 789.8 29.5985Z" fill="#FBEC93"/>
<path d="M766.85 28C768.02 28 768.967 28.3272 769.665 29.0706C770.046 29.4766 770.564 29.7648 771.121 29.7351C771.4 29.7202 771.689 29.7127 771.988 29.7127C777.502 29.7127 779.638 32.2824 779.638 36.9158C779.638 39.0254 779.393 40.3828 778.382 41.5874C776.897 43.6427 778.382 44.7845 780.894 44.7845C786.408 44.7845 788.544 47.3542 788.544 51.9875C788.544 56.6014 786.408 59.1712 780.894 59.1712C774.935 59.1712 773.019 55.5871 773.015 50.3793C773.014 48.5558 773.196 47.8569 773.472 45.9263C773.586 45.127 773.349 44.0994 771.988 44.0994C766.029 44.0994 764.113 40.5153 764.109 35.3075C764.106 30.9525 764.218 28 766.85 28Z" fill="#FBEC93"/>
<path d="M799.527 58.7548C800.081 58.7263 800.598 59.014 800.982 59.4143C801.658 60.1174 802.57 60.4271 803.696 60.4271C806.25 60.4271 806.359 57.5794 806.356 53.3787C806.352 48.3556 804.492 44.8986 798.709 44.8986C793.357 44.8986 791.284 47.3773 791.284 51.8275C791.284 56.2965 793.357 58.7752 798.709 58.7752C798.991 58.7752 799.263 58.7684 799.527 58.7548Z" fill="#FBEC93"/>
<path d="M1161.1 39.9147H1164.2V52.6619H1161.1V39.9147Z" fill="#F8EBDA"/>
<path d="M1160.71 36.1004C1160.71 37.1434 1161.56 38.0205 1162.64 38.0205C1163.69 38.0205 1164.55 37.1434 1164.55 36.1004C1164.55 35.0573 1163.69 34.1802 1162.64 34.1802C1161.56 34.1802 1160.71 35.0573 1160.71 36.1004Z" fill="#F8EBDA"/>
<path d="M1151.51 52.9094C1147.93 52.9094 1145.18 50.1124 1145.18 46.3006C1145.18 42.4641 1148.05 39.6671 1151.96 39.6671C1155.77 39.6671 1158.59 42.4146 1158.59 46.1026V52.6618H1155.72V50.5827C1154.76 52.1421 1153.2 52.9094 1151.51 52.9094ZM1155.45 46.3006C1155.45 44.2215 1153.97 42.6868 1151.89 42.6868C1149.83 42.6868 1148.32 44.2215 1148.32 46.3006C1148.32 48.3798 1149.83 49.9144 1151.89 49.9144C1153.97 49.9144 1155.45 48.3798 1155.45 46.3006Z" fill="#F8EBDA"/>
<path d="M1130.37 52.9094C1126.79 52.9094 1124.04 50.1124 1124.04 46.3006C1124.04 42.4641 1126.91 39.6671 1130.82 39.6671C1134.63 39.6671 1137.45 42.4146 1137.45 46.1026V52.6618H1134.58V50.5827C1133.62 52.1421 1132.06 52.9094 1130.37 52.9094ZM1134.31 46.3006C1134.31 44.2215 1132.82 42.6868 1130.75 42.6868C1128.69 42.6868 1127.18 44.2215 1127.18 46.3006C1127.18 48.3798 1128.69 49.9144 1130.75 49.9144C1132.82 49.9144 1134.31 48.3798 1134.31 46.3006Z" fill="#F8EBDA"/>
<path d="M1122.92 48.7015C1121.98 51.647 1119.48 52.9094 1116.51 52.9094C1112.67 52.9094 1109.93 50.1619 1109.93 46.3006C1109.93 42.3898 1112.75 39.6671 1116.66 39.6671C1120.42 39.6671 1122.99 42.2413 1122.99 45.7313C1122.99 46.2511 1122.94 46.7957 1122.82 47.3649H1113.64C1113.29 47.3649 1113.12 47.5382 1113.12 47.8352C1113.12 49.0233 1114.63 50.2114 1116.63 50.2114C1117.94 50.2114 1119.33 49.8154 1119.88 48.7015H1122.92ZM1116.71 42.2908C1114.78 42.2908 1113.37 43.3056 1113.04 44.9888H1119.58C1119.83 44.9888 1119.97 44.8403 1119.97 44.5927C1119.97 43.4542 1118.69 42.2908 1116.71 42.2908Z" fill="#F8EBDA"/>
<path d="M1109.35 52.8104C1108.3 52.8104 1107.51 52.8104 1106.62 52.8104C1103.57 52.8104 1101.84 51.1768 1101.84 47.8848V42.7364H1098.7V39.9147H1100.93C1101.52 39.9147 1101.84 39.5929 1101.84 38.9989V36.1003H1104.94V39.9147H1109.37V42.7364H1104.94V47.5878C1104.94 49.1224 1105.55 49.8155 1107.21 49.8155C1107.81 49.8155 1108.3 49.8155 1109.35 49.8155V52.8104Z" fill="#F8EBDA"/>
<path d="M1084.3 52.9094C1080.71 52.9094 1077.96 50.1124 1077.96 46.3006C1077.96 42.4641 1080.83 39.6671 1084.74 39.6671C1088.56 39.6671 1091.38 42.4146 1091.38 46.1026V52.6618H1088.51V50.5827C1087.54 52.1421 1085.98 52.9094 1084.3 52.9094ZM1088.23 46.3006C1088.23 44.2215 1086.75 42.6868 1084.67 42.6868C1082.61 42.6868 1081.1 44.2215 1081.1 46.3006C1081.1 48.3798 1082.61 49.9144 1084.67 49.9144C1086.75 49.9144 1088.23 48.3798 1088.23 46.3006Z" fill="#F8EBDA"/>
<path d="M1070.68 39.6672C1074.21 39.6672 1076.96 42.4642 1076.96 46.3007C1076.96 50.1125 1074.14 52.9095 1070.25 52.9095C1066.32 52.9095 1063.55 50.1125 1063.55 46.3255V36.1003H1066.64V41.4988C1067.51 40.3355 1069.02 39.6672 1070.68 39.6672ZM1066.69 46.3007C1066.69 48.3799 1068.15 49.9145 1070.28 49.9145C1072.31 49.9145 1073.82 48.3799 1073.82 46.3007C1073.82 44.2215 1072.31 42.6869 1070.28 42.6869C1068.2 42.6869 1066.69 44.2215 1066.69 46.3007Z" fill="#F8EBDA"/>
<path d="M1055.43 52.9094C1051.57 52.9094 1048.75 50.1867 1048.75 46.3006C1048.75 42.4146 1051.57 39.6671 1055.43 39.6671C1059.32 39.6671 1062.11 42.4146 1062.11 46.3006C1062.11 50.1867 1059.32 52.9094 1055.43 52.9094ZM1055.43 49.9144C1057.53 49.9144 1058.97 48.3798 1058.97 46.3006C1058.97 44.1967 1057.53 42.6868 1055.43 42.6868C1053.35 42.6868 1051.89 44.1967 1051.89 46.3006C1051.89 48.3798 1053.35 49.9144 1055.43 49.9144Z" fill="#F8EBDA"/>
<path d="M1041.49 39.6672C1045.02 39.6672 1047.77 42.4642 1047.77 46.3007C1047.77 50.1125 1044.95 52.9095 1041.06 52.9095C1037.13 52.9095 1034.36 50.1125 1034.36 46.3255V36.1003H1037.45V41.4988C1038.32 40.3355 1039.83 39.6672 1041.49 39.6672ZM1037.5 46.3007C1037.5 48.3799 1038.96 49.9145 1041.09 49.9145C1043.12 49.9145 1044.63 48.3799 1044.63 46.3007C1044.63 44.2215 1043.12 42.6869 1041.09 42.6869C1039.01 42.6869 1037.5 44.2215 1037.5 46.3007Z" fill="#F8EBDA"/>
<path d="M1006.02 29.5985C1011.37 29.5985 1013.44 32.1275 1013.44 36.6873C1013.44 41.2279 1011.37 43.7568 1006.02 43.7568C1000.65 43.7568 998.596 41.2279 998.596 36.6873C998.596 32.1275 1000.65 29.5985 1006.02 29.5985Z" fill="#B0A8FD"/>
<path d="M983.068 28C984.238 28 985.185 28.3272 985.883 29.0706C986.264 29.4766 986.782 29.7648 987.339 29.7351C987.618 29.7202 987.907 29.7127 988.206 29.7127C993.72 29.7127 995.856 32.2824 995.856 36.9158C995.856 39.0254 995.611 40.3828 994.6 41.5874C993.115 43.6427 994.6 44.7845 997.112 44.7845C1002.63 44.7845 1004.76 47.3542 1004.76 51.9875C1004.76 56.6014 1002.63 59.1712 997.112 59.1712C991.153 59.1712 989.237 55.5871 989.233 50.3793C989.232 48.5558 989.414 47.8569 989.69 45.9263C989.804 45.127 989.567 44.0994 988.206 44.0994C982.247 44.0994 980.331 40.5153 980.327 35.3075C980.324 30.9525 980.436 28 983.068 28Z" fill="#B0A8FD"/>
<path d="M1015.74 58.7548C1016.3 58.7263 1016.82 59.014 1017.2 59.4143C1017.88 60.1174 1018.79 60.4271 1019.91 60.4271C1022.47 60.4271 1022.58 57.5794 1022.57 53.3787C1022.57 48.3556 1020.71 44.8986 1014.93 44.8986C1009.57 44.8986 1007.5 47.3773 1007.5 51.8275C1007.5 56.2965 1009.57 58.7752 1014.93 58.7752C1015.21 58.7752 1015.48 58.7684 1015.74 58.7548Z" fill="#B0A8FD"/>
<path d="M1286.89 39.6672C1290.43 39.6672 1293.18 42.4642 1293.18 46.3007C1293.18 50.1125 1290.36 52.9095 1286.47 52.9095C1282.54 52.9095 1279.76 50.1125 1279.76 46.3255V36.1003H1282.86V41.4988C1283.72 40.3355 1285.23 39.6672 1286.89 39.6672ZM1282.91 46.3007C1282.91 48.3799 1284.37 49.9145 1286.5 49.9145C1288.53 49.9145 1290.04 48.3799 1290.04 46.3007C1290.04 44.2215 1288.53 42.6869 1286.5 42.6869C1284.42 42.6869 1282.91 44.2215 1282.91 46.3007Z" fill="#F8EBDA"/>
<path d="M1271.65 52.9094C1267.79 52.9094 1264.97 50.1867 1264.97 46.3006C1264.97 42.4146 1267.79 39.6671 1271.65 39.6671C1275.53 39.6671 1278.33 42.4146 1278.33 46.3006C1278.33 50.1867 1275.53 52.9094 1271.65 52.9094ZM1271.65 49.9144C1273.75 49.9144 1275.19 48.3798 1275.19 46.3006C1275.19 44.1967 1273.75 42.6868 1271.65 42.6868C1269.57 42.6868 1268.11 44.1967 1268.11 46.3006C1268.11 48.3798 1269.57 49.9144 1271.65 49.9144Z" fill="#F8EBDA"/>
<path d="M1257.7 39.6672C1261.24 39.6672 1263.99 42.4642 1263.99 46.3007C1263.99 50.1125 1261.17 52.9095 1257.28 52.9095C1253.35 52.9095 1250.58 50.1125 1250.58 46.3255V36.1003H1253.67V41.4988C1254.54 40.3355 1256.05 39.6672 1257.7 39.6672ZM1253.72 46.3007C1253.72 48.3799 1255.18 49.9145 1257.31 49.9145C1259.34 49.9145 1260.85 48.3799 1260.85 46.3007C1260.85 44.2215 1259.34 42.6869 1257.31 42.6869C1255.23 42.6869 1253.72 44.2215 1253.72 46.3007Z" fill="#F8EBDA"/>
<path d="M1222.24 29.5985C1227.59 29.5985 1229.66 32.1275 1229.66 36.6873C1229.66 41.2279 1227.59 43.7568 1222.24 43.7568C1216.87 43.7568 1214.81 41.2279 1214.81 36.6873C1214.81 32.1275 1216.87 29.5985 1222.24 29.5985Z" fill="#F28B6F"/>
<path d="M1199.29 28C1200.46 28 1201.4 28.3272 1202.1 29.0706C1202.48 29.4766 1203 29.7648 1203.56 29.7351C1203.84 29.7202 1204.12 29.7127 1204.42 29.7127C1209.94 29.7127 1212.07 32.2824 1212.07 36.9158C1212.07 39.0254 1211.83 40.3828 1210.82 41.5874C1209.33 43.6427 1210.82 44.7845 1213.33 44.7845C1218.84 44.7845 1220.98 47.3542 1220.98 51.9875C1220.98 56.6014 1218.84 59.1712 1213.33 59.1712C1207.37 59.1712 1205.46 55.5871 1205.45 50.3793C1205.45 48.5558 1205.63 47.8569 1205.91 45.9263C1206.02 45.127 1205.78 44.0994 1204.42 44.0994C1198.47 44.0994 1196.55 40.5153 1196.55 35.3075C1196.54 30.9525 1196.65 28 1199.29 28Z" fill="#F28B6F"/>
<path d="M1231.96 58.7548C1232.52 58.7263 1233.03 59.014 1233.42 59.4143C1234.09 60.1174 1235.01 60.4271 1236.13 60.4271C1238.69 60.4271 1238.8 57.5794 1238.79 53.3787C1238.79 48.3556 1236.93 44.8986 1231.15 44.8986C1225.79 44.8986 1223.72 47.3773 1223.72 51.8275C1223.72 56.2965 1225.79 58.7752 1231.15 58.7752C1231.43 58.7752 1231.7 58.7684 1231.96 58.7548Z" fill="#F28B6F"/>
</svg>
