<svg width="48" height="36" viewBox="0 0 48 36" fill="none" xmlns="http://www.w3.org/2000/svg">
<path fill-rule="evenodd" clip-rule="evenodd" d="M6.40847 1.18855C5.63364 0.363226 4.58292 0 3.28306 0C0.361361 0 0.237114 3.27776 0.240796 8.11268C0.245197 13.8943 2.37253 17.8732 8.98728 17.8732C10.4981 17.8732 10.7618 19.0141 10.6351 19.9014C10.5705 20.3537 10.5105 20.7451 10.4561 21.1002C10.2526 22.4279 10.1269 23.2479 10.1281 24.8451C10.1325 30.6267 12.2599 34.6056 18.8746 34.6056C24.9969 34.6056 27.3676 31.7527 27.3676 26.6305C27.3676 21.4867 24.9969 18.6338 18.8746 18.6338C16.0858 18.6338 14.4379 17.3662 16.0858 15.0845C17.209 13.7471 17.4802 12.2402 17.4802 9.89813C17.4802 4.75429 15.1096 1.90141 8.98728 1.90141C8.65541 1.90141 8.33461 1.90973 8.02466 1.92628C7.4073 1.95925 6.83163 1.63928 6.40847 1.18855ZM37.0013 9.64444C37.0013 4.58225 34.7014 1.77465 28.7618 1.77465C22.8 1.77465 20.5224 4.58225 20.5224 9.64444C20.5224 14.6854 22.8 17.493 28.7618 17.493C34.7014 17.493 37.0013 14.6854 37.0013 9.64444ZM39.5609 34.1434C40.1764 34.1117 40.7498 34.4312 41.1768 34.8756C41.9268 35.6561 42.9394 36 44.1893 36C47.0251 36 47.1456 32.8385 47.1421 28.175C47.1378 22.5984 45.073 18.7606 38.6529 18.7606C32.7107 18.7606 30.4097 21.5123 30.4097 26.4529C30.4097 31.4143 32.7107 34.166 38.6529 34.166C38.9656 34.166 39.2682 34.1585 39.5609 34.1434ZM10.9468 5.27964C12.9026 5.27964 13.66 6.19648 13.66 7.84957C13.66 9.49572 12.9026 10.4126 10.9468 10.4126C8.9837 10.4126 8.23373 9.49572 8.23373 7.84957C8.23373 6.19648 8.9837 5.27964 10.9468 5.27964ZM23.2656 24.6415C23.2656 22.9884 22.5082 22.0716 20.5524 22.0716C18.5893 22.0716 17.8393 22.9884 17.8393 24.6415C17.8393 26.2877 18.5893 27.2045 20.5524 27.2045C22.5082 27.2045 23.2656 26.2877 23.2656 24.6415ZM39.9849 22.0716C41.9407 22.0716 42.698 22.9884 42.698 24.6415C42.698 26.2877 41.9407 27.2045 39.9849 27.2045C38.0217 27.2045 37.2718 26.2877 37.2718 24.6415C37.2718 22.9884 38.0217 22.0716 39.9849 22.0716ZM33.1653 7.84957C33.1653 6.19648 32.408 5.27964 30.4522 5.27964C28.4891 5.27964 27.7391 6.19648 27.7391 7.84957C27.7391 9.49572 28.4891 10.4126 30.4522 10.4126C32.408 10.4126 33.1653 9.49572 33.1653 7.84957Z" fill="#42241B"/>
</svg>
