<svg width="48" height="36" viewBox="0 0 48 36" fill="none" xmlns="http://www.w3.org/2000/svg">
<g opacity="0.5">
<path d="M29.0576 1.85928C34.9822 1.85928 37.2763 4.65981 37.2763 9.70923C37.2763 14.7374 34.9822 17.538 29.0576 17.538C23.1108 17.538 20.839 14.7374 20.839 9.70923C20.839 4.65981 23.1108 1.85928 29.0576 1.85928Z" fill="#F8EBDA"/>
<path d="M3.64307 0.0891113C4.93964 0.0891113 5.98771 0.451421 6.7606 1.27466C7.18269 1.72426 7.7569 2.04342 8.37271 2.01054C8.68188 1.99403 9.00187 1.98573 9.33291 1.98573C15.4398 1.98573 17.8045 4.83142 17.8045 9.96229C17.8045 12.2984 17.5339 13.8016 16.4135 15.1356C14.7698 17.4115 16.4135 18.6759 19.1953 18.6759C25.3022 18.6759 27.6668 21.5216 27.6668 26.6525C27.6668 31.7618 25.3022 34.6075 19.1953 34.6075C12.5972 34.6075 10.4753 30.6386 10.4709 24.8715C10.4693 22.8523 10.6711 22.0783 10.9766 19.9403C11.103 19.0553 10.8399 17.9173 9.33291 17.9173C2.73483 17.9173 0.612862 13.9484 0.608471 8.18133C0.604799 3.3586 0.728733 0.0891113 3.64307 0.0891113Z" fill="#F8EBDA"/>
<path d="M39.8294 34.1464C40.4434 34.1148 41.0153 34.4335 41.4413 34.8768C42.1894 35.6553 43.1994 35.9983 44.4462 35.9983C47.2748 35.9983 47.3951 32.8448 47.3915 28.1931C47.3872 22.6306 45.3277 18.8024 38.9237 18.8024C32.9965 18.8024 30.7013 21.5472 30.7013 26.4753C30.7013 31.4242 32.9965 34.169 38.9237 34.169C39.2356 34.169 39.5375 34.1614 39.8294 34.1464Z" fill="#F8EBDA"/>
</g>
</svg>
